HIERARCHY
ROOT root
{
	OFFSET 0.000000 0.000000 0.000000
	CHANNELS 6 Xposition Yposition Zposition Zrotation Yrotation Xrotation
	JOINT lhip
	{
		OFFSET 0.058581 -0.082280 -0.017664
		CHANNELS 3 Zrotation Yrotation Xrotation
		JOINT lknee
		{
			OFFSET 0.043451 -0.386469 0.008037
			CHANNELS 3 Zrotation Yrotation Xrotation
			JOINT lankle
			{
				OFFSET -0.014790 -0.426874 -0.037428
				CHANNELS 3 Zrotation Yrotation Xrotation
				JOINT ltoe
				{
					OFFSET 0.041054 -0.060286 0.122042
					CHANNELS 3 Zrotation Yrotation Xrotation
					End Site
					{
						OFFSET 0.000000 0.000000 0.000000
					}
				}
			}
		}
	}
	JOINT rhip
	{
		OFFSET -0.060310 -0.090513 -0.013543
		CHANNELS 3 Zrotation Yrotation Xrotation
		JOINT rknee
		{
			OFFSET -0.043257 -0.383688 -0.004843
			CHANNELS 3 Zrotation Yrotation Xrotation
			JOINT rankle
			{
				OFFSET 0.019056 -0.420046 -0.034562
				CHANNELS 3 Zrotation Yrotation Xrotation
				JOINT rtoe
				{
					OFFSET -0.034840 -0.062106 0.130323
					CHANNELS 3 Zrotation Yrotation Xrotation
					End Site
					{
						OFFSET 0.000000 0.000000 0.000000
					}
				}
			}
		}
	}
	JOINT lowerback
	{
		OFFSET 0.004439 0.124404 -0.038385
		CHANNELS 3 Zrotation Yrotation Xrotation
		JOINT upperback
		{
			OFFSET 0.004488 0.137956 0.026820
			CHANNELS 3 Zrotation Yrotation Xrotation
			JOINT chest
			{
				OFFSET -0.002265 0.056032 0.002855
				CHANNELS 3 Zrotation Yrotation Xrotation
				JOINT lowerneck
				{
					OFFSET -0.013390 0.211636 -0.033468
					CHANNELS 3 Zrotation Yrotation Xrotation
					JOINT upperneck
					{
						OFFSET 0.010113 0.088937 0.050410
						CHANNELS 3 Zrotation Yrotation Xrotation
						End Site
						{
							OFFSET 0.000000 0.000000 0.000000
						}
					}
				}
				JOINT lclavicle
				{
					OFFSET 0.071702 0.114000 -0.018898
					CHANNELS 3 Zrotation Yrotation Xrotation
					JOINT lshoulder
					{
						OFFSET 0.122921 0.045205 -0.019046
						CHANNELS 3 Zrotation Yrotation Xrotation
						JOINT lelbow
						{
							OFFSET 0.255332 -0.015649 -0.022946
							CHANNELS 3 Zrotation Yrotation Xrotation
							JOINT lwrist
							{
								OFFSET 0.265709 0.012698 -0.007375
								CHANNELS 3 Zrotation Yrotation Xrotation
								End Site
								{
									OFFSET 0.000000 0.000000 0.000000
								}
							}
						}
					}
				}
				JOINT rclavicle
				{
					OFFSET -0.082954 0.112472 -0.023707
					CHANNELS 3 Zrotation Yrotation Xrotation
					JOINT rshoulder
					{
						OFFSET -0.113228 0.046853 -0.008472
						CHANNELS 3 Zrotation Yrotation Xrotation
						JOINT relbow
						{
							OFFSET -0.260127 -0.014369 -0.031269
							CHANNELS 3 Zrotation Yrotation Xrotation
							JOINT rwrist
							{
								OFFSET -0.269108 0.006794 -0.006027
								CHANNELS 3 Zrotation Yrotation Xrotation
								End Site
								{
									OFFSET 0.000000 0.000000 0.000000
								}
							}
						}
					}
				}
			}
		}
	}
}
MOTION
Frames: 11
Frame Time: 0.033333
1.177261 0.699898 0.974919 -90.174631 0.678762 81.175148 0.177841 -2.724097 -0.283312 -2.765764 -8.424860 17.682421 1.975518 12.920943 -17.049111 0.000000 -0.000000 0.000000 1.034213 -1.840670 1.431486 -1.807255 -0.055098 15.804343 0.012116 -11.704317 -16.620521 0.000000 -0.000000 0.000000 -0.815099 3.829722 9.039907 -0.539784 -1.541294 4.661975 -1.398499 0.244708 -1.375004 3.704372 -2.174118 -7.897918 4.600389 -3.692427 4.773826 -29.540962 -3.090221 -0.336086 -50.954219 -4.969244 12.793295 2.556474 -23.516147 4.069893 -4.785696 -2.850073 2.242223 27.912193 7.815280 0.748258 55.175043 1.882961 18.498969 -3.576264 26.961089 7.654136 4.032856 3.504746 4.759283 
1.178013 0.700232 0.974906 -90.327289 0.603901 81.213995 0.157156 -2.700059 -0.378780 -2.772563 -8.280649 17.666695 1.969689 12.912792 -16.963778 0.000000 -0.000000 0.000000 1.005126 -1.571455 1.271162 -1.787730 -0.093411 15.958844 0.035498 -11.685219 -16.603453 0.000000 -0.000000 0.000000 -0.912822 4.006017 9.071732 -0.507960 -1.457997 4.869963 -1.416434 0.229077 -1.543840 3.580255 -2.064119 -7.899448 4.571873 -3.798220 4.603351 -29.424920 -3.085333 -0.429939 -51.155170 -5.277192 12.699510 2.857055 -23.772283 3.484953 -5.028422 -2.939966 2.494357 28.115149 8.000573 0.843411 55.134890 2.141298 18.339768 -4.498492 26.597437 7.072326 4.233729 3.457622 5.463088 
1.178353 0.700481 0.974962 -90.226342 0.649910 81.382972 0.212290 -2.724413 -0.655975 -2.705831 -8.216986 17.746217 1.957061 12.872647 -17.038831 0.000000 -0.000000 0.000000 1.049159 -1.653145 1.042420 -1.760187 -0.172741 15.973434 -0.004373 -11.694228 -16.517496 0.000000 -0.000000 0.000000 -0.977092 4.000739 8.881518 -0.463865 -1.492978 5.084558 -1.415331 0.246295 -1.649578 3.608219 -1.902380 -8.033577 4.495674 -3.895564 4.460304 -29.265676 -3.007876 -0.542789 -51.236741 -5.356575 12.736403 3.023584 -24.023279 3.142304 -4.873002 -2.898337 2.414609 28.200233 8.033529 0.861245 55.114684 2.359027 18.228221 -4.830620 26.008938 6.549301 4.202582 3.201787 5.376287 
1.180466 0.700814 0.974406 -89.808717 0.712952 81.555726 0.292938 -3.183421 -1.412885 -2.885446 -8.281505 18.415085 2.000271 12.851330 -17.032568 0.000000 -0.000000 0.000000 1.106059 -1.436600 0.655298 -1.727464 -0.495523 16.140001 -0.117222 -11.994466 -16.566924 0.000000 -0.000000 0.000000 -1.061250 3.937657 9.511501 -0.396317 -1.704321 4.412449 -1.351503 0.077411 -1.528140 3.574972 -1.793365 -8.420735 4.571759 -3.896736 4.703887 -29.028335 -2.901698 -0.531457 -51.407624 -5.493249 12.514044 3.509749 -24.223237 2.701423 -5.098734 -2.936341 2.163689 28.285735 8.037204 0.745433 55.041477 2.725762 18.035164 -5.561738 25.744980 6.284320 4.145064 3.379277 5.831923 
1.180267 0.701016 0.974492 -89.985590 0.718250 81.611800 0.322634 -3.064301 -1.371754 -2.821134 -8.159645 18.271515 2.004949 12.907482 -17.037879 0.000000 -0.000000 0.000000 1.101244 -1.494765 0.569356 -1.641744 -0.353036 16.156500 -0.149832 -11.909659 -16.624348 0.000000 -0.000000 0.000000 -1.068435 4.125850 9.386237 -0.414539 -1.589840 4.759836 -1.341693 0.056300 -1.630583 3.657956 -1.751081 -8.531011 4.542967 -4.012910 4.439254 -29.145770 -2.982576 -0.534581 -51.141915 -5.494481 12.341878 3.720654 -24.291595 2.165333 -5.016552 -2.887153 2.132985 28.498254 8.091947 0.726232 54.838538 2.817886 17.812999 -5.977542 25.734397 5.688918 4.137765 3.401908 5.896634 
1.181508 0.701044 0.974350 -89.392522 0.858540 81.823174 0.460170 -3.431298 -2.021248 -2.943252 -8.310252 18.757526 1.970294 12.709055 -17.093696 0.000000 -0.000000 0.000000 1.219015 -1.614013 0.270103 -1.626551 -0.638644 16.228975 -0.244678 -12.148658 -16.677863 0.000000 -0.000000 0.000000 -1.099846 4.049748 9.669544 -0.301997 -1.867188 4.556536 -1.289253 -0.043388 -1.533642 3.713687 -1.863901 -9.088788 4.634319 -4.115795 4.486666 -29.172448 -3.129196 -0.473961 -50.817600 -5.544205 12.146810 3.959936 -24.233123 1.481831 -4.479157 -3.059305 1.780203 28.631469 8.188768 0.584218 54.580807 2.962475 17.572045 -6.557483 25.840744 5.000868 3.781042 3.747558 5.917775 
1.182143 0.701060 0.974585 -89.258469 0.878564 82.012355 0.512484 -3.476832 -2.369401 -2.935741 -8.264639 18.858234 1.932076 12.655956 -17.001771 0.000000 -0.000000 0.000000 1.257184 -1.562878 0.063610 -1.620681 -0.751547 16.184525 -0.223830 -12.249014 -16.787063 0.000000 -0.000000 0.000000 -1.243773 4.211651 9.742916 -0.211283 -1.894540 4.651687 -1.191647 -0.021966 -1.500297 3.745155 -1.885479 -9.299297 4.671376 -4.482804 4.241656 -28.987349 -3.272931 -0.629410 -50.741825 -5.600926 11.900857 4.241504 -23.654396 0.794626 -4.712326 -2.815317 1.961393 28.807698 8.339176 0.589306 54.210675 2.969076 17.350650 -7.292579 26.282525 4.373751 2.960568 4.178312 6.508975 
1.182456 0.700750 0.974950 -89.006509 0.864144 82.347770 0.506373 -3.457170 -2.709264 -2.896056 -8.324611 18.627423 1.866321 12.500105 -16.685199 0.000000 -0.000000 0.000000 1.235738 -1.545001 -0.277154 -1.614908 -0.812533 16.119358 -0.138366 -12.450326 -17.049664 0.000000 -0.000000 0.000000 -1.281787 4.282670 9.493869 -0.145086 -1.953428 4.949895 -1.235174 -0.047970 -1.569796 3.725015 -1.810654 -9.281482 4.698909 -4.863711 4.014242 -28.776715 -3.361264 -0.733257 -50.575356 -5.627761 11.642650 4.285803 -22.971631 0.424449 -4.770884 -2.751625 2.534663 28.853520 8.394799 0.562090 53.866893 3.004896 17.116949 -7.871067 26.892181 4.343888 1.359563 4.713084 8.088426 
1.182678 0.700388 0.975474 -88.904149 0.776372 82.630551 0.434349 -3.440449 -2.988455 -2.904989 -8.387340 18.463570 1.751055 12.353775 -16.504180 0.000000 -0.000000 0.000000 1.128147 -1.687259 -0.586207 -1.668450 -0.763657 16.103778 0.038996 -12.657676 -17.582079 0.000000 -0.000000 0.000000 -1.365162 4.464378 9.299562 -0.107298 -2.008652 5.166136 -1.230300 -0.045645 -1.610021 3.585874 -1.813128 -9.181742 4.671199 -5.205317 3.698281 -28.567525 -3.511948 -0.862904 -50.286549 -5.436489 11.615073 4.265285 -22.008345 0.220108 -5.100775 -2.230535 2.848323 28.757904 8.455421 0.462675 53.440258 2.924373 16.993904 -8.002473 27.690307 4.218734 0.780092 4.887207 8.408334 
1.182760 0.700200 0.976082 -88.659748 0.662640 82.927180 0.273684 -3.385599 -3.275397 -2.792398 -8.501178 18.202753 1.730979 12.337234 -16.280960 0.000000 -0.000000 0.000000 1.201221 -1.702991 -0.863114 -1.983412 -0.841584 16.095745 -0.074976 -13.136592 -17.992083 0.000000 -0.000000 0.000000 -1.424586 4.557803 9.224692 -0.119616 -2.126261 5.355090 -1.303510 -0.070165 -1.576388 3.473805 -1.820360 -9.226818 4.683989 -5.297250 3.300414 -28.172062 -3.477132 -1.163187 -49.965991 -5.010768 11.800785 4.140463 -21.442626 -0.123320 -5.908399 -1.764557 2.780993 28.518753 8.543955 0.212627 53.156201 3.020824 16.752073 -8.573503 28.850959 2.621523 1.500793 5.058335 7.050647 
1.182146 0.700287 0.976547 -88.509345 0.581227 82.981108 0.237011 -3.444568 -3.257087 -2.866010 -8.637852 18.027115 1.554556 12.312937 -16.130688 0.000000 -0.000000 0.000000 1.196324 -1.803650 -0.758473 -2.236265 -1.200268 15.875729 -0.476364 -13.409282 -17.394167 0.000000 -0.000000 0.000000 -1.470797 4.650926 9.339366 -0.215096 -2.129623 5.333870 -1.297471 -0.168176 -1.428578 3.454107 -1.849341 -9.039704 4.781062 -5.309558 2.890707 -28.023784 -3.369399 -1.134704 -49.595196 -4.743947 11.719427 4.281372 -21.394627 -0.502295 -5.981554 -1.976718 2.611568 28.335146 8.499342 -0.035668 52.909948 3.125491 16.707640 -8.215694 29.564529 2.752205 1.773236 4.888078 6.524763 
